<mxfile host="app.diagrams.net" agent="Mozilla/5.0 (Macintosh; Intel Mac OS X 10_15_7) AppleWebKit/605.1.15 (KHTML, like Gecko) Version/18.4 Safari/605.1.15" version="28.2.3">
  <diagram name="Trang-1" id="hvy8HmWsE409ZV-Au6v1">
    <mxGraphModel dx="1977" dy="1087" grid="0" gridSize="10" guides="1" tooltips="1" connect="1" arrows="1" fold="1" page="0" pageScale="1" pageWidth="827" pageHeight="1169" math="0" shadow="0">
      <root>
        <mxCell id="0" />
        <mxCell id="1" parent="0" />
        <mxCell id="uHIWX93eIG6VSl-sE2Iv-3" value="" style="rounded=0;whiteSpace=wrap;html=1;dashed=1;dashPattern=8 8;" vertex="1" parent="1">
          <mxGeometry x="-278" y="70" width="1790" height="778" as="geometry" />
        </mxCell>
        <mxCell id="uHIWX93eIG6VSl-sE2Iv-4" value="" style="rounded=0;whiteSpace=wrap;html=1;dashed=1;dashPattern=8 8;" vertex="1" parent="1">
          <mxGeometry x="-252" y="288" width="1733" height="536" as="geometry" />
        </mxCell>
        <mxCell id="uHIWX93eIG6VSl-sE2Iv-5" value="" style="rounded=0;whiteSpace=wrap;html=1;strokeColor=light-dark(#005493, #ededed);fillColor=light-dark(#0096ff, #ededed);" vertex="1" parent="1">
          <mxGeometry x="697" y="123" width="154" height="92" as="geometry" />
        </mxCell>
        <mxCell id="uHIWX93eIG6VSl-sE2Iv-6" value="&lt;font style=&quot;font-size: 16px;&quot; color=&quot;#ffffff&quot;&gt;&lt;span style=&quot;caret-color: rgb(255, 255, 255);&quot;&gt;&lt;b&gt;SPA&lt;/b&gt;&lt;/span&gt;&lt;/font&gt;&lt;div&gt;&lt;font style=&quot;font-size: 16px;&quot; color=&quot;#ffffff&quot;&gt;&lt;span style=&quot;caret-color: rgb(255, 255, 255);&quot;&gt;[ReactJS]&lt;/span&gt;&lt;/font&gt;&lt;/div&gt;" style="text;html=1;align=center;verticalAlign=middle;resizable=0;points=[];autosize=1;strokeColor=none;fillColor=none;" vertex="1" parent="1">
          <mxGeometry x="731.99" y="122" width="87" height="50" as="geometry" />
        </mxCell>
        <mxCell id="uHIWX93eIG6VSl-sE2Iv-7" value="&lt;font style=&quot;font-size: 14px;&quot;&gt;&lt;span style=&quot;caret-color: rgb(235, 235, 235); color: light-dark(rgb(255, 255, 255), rgb(35, 35, 35));&quot;&gt;GUI for the application&lt;/span&gt;&lt;/font&gt;" style="text;html=1;align=center;verticalAlign=middle;resizable=0;points=[];autosize=1;strokeColor=none;fillColor=none;" vertex="1" parent="1">
          <mxGeometry x="695.5" y="186" width="157" height="28" as="geometry" />
        </mxCell>
        <mxCell id="uHIWX93eIG6VSl-sE2Iv-8" value="&lt;font style=&quot;font-size: 16px;&quot;&gt;&lt;b&gt;My Meetings System&lt;/b&gt;&lt;/font&gt;&lt;div&gt;&lt;font style=&quot;font-size: 16px;&quot;&gt;[System]&lt;/font&gt;&lt;/div&gt;" style="text;html=1;align=center;verticalAlign=middle;whiteSpace=wrap;rounded=0;" vertex="1" parent="1">
          <mxGeometry x="513.5699999999999" y="80" width="206.87" height="30" as="geometry" />
        </mxCell>
        <mxCell id="uHIWX93eIG6VSl-sE2Iv-9" value="&lt;font style=&quot;font-size: 16px;&quot;&gt;&lt;b&gt;API&lt;/b&gt;&lt;/font&gt;&lt;div&gt;&lt;font style=&quot;font-size: 16px;&quot;&gt;[.NET Core API]&lt;/font&gt;&lt;/div&gt;" style="rounded=0;whiteSpace=wrap;html=1;strokeColor=light-dark(#005493, #ededed);fillColor=light-dark(#74a7fe, #ededed);" vertex="1" parent="1">
          <mxGeometry x="709.99" y="334" width="130" height="66" as="geometry" />
        </mxCell>
        <mxCell id="uHIWX93eIG6VSl-sE2Iv-10" value="&lt;font style=&quot;font-size: 16px;&quot;&gt;&lt;b&gt;Registration&lt;/b&gt;&lt;br&gt;&lt;/font&gt;&lt;div&gt;&lt;font style=&quot;font-size: 16px;&quot;&gt;[.NET Libraries]&lt;/font&gt;&lt;/div&gt;" style="rounded=0;whiteSpace=wrap;html=1;strokeColor=light-dark(#005493, #ededed);fillColor=light-dark(#74a7fe, #ededed);" vertex="1" parent="1">
          <mxGeometry x="301" y="489" width="130" height="66" as="geometry" />
        </mxCell>
        <mxCell id="uHIWX93eIG6VSl-sE2Iv-11" value="&lt;font style=&quot;font-size: 16px;&quot;&gt;&lt;b&gt;User Access&lt;/b&gt;&lt;br&gt;&lt;/font&gt;&lt;div&gt;&lt;font style=&quot;font-size: 16px;&quot;&gt;[.NET Libraries]&lt;/font&gt;&lt;/div&gt;" style="rounded=0;whiteSpace=wrap;html=1;strokeColor=light-dark(#005493, #ededed);fillColor=light-dark(#74a7fe, #ededed);" vertex="1" parent="1">
          <mxGeometry x="535" y="489" width="130" height="66" as="geometry" />
        </mxCell>
        <mxCell id="uHIWX93eIG6VSl-sE2Iv-12" value="&lt;font style=&quot;font-size: 16px;&quot;&gt;&lt;b&gt;Meetings&lt;/b&gt;&lt;br&gt;&lt;/font&gt;&lt;div&gt;&lt;font style=&quot;font-size: 16px;&quot;&gt;[.NET Libraries]&lt;/font&gt;&lt;/div&gt;" style="rounded=0;whiteSpace=wrap;html=1;strokeColor=light-dark(#005493, #ededed);fillColor=light-dark(#74a7fe, #ededed);" vertex="1" parent="1">
          <mxGeometry x="709.99" y="489" width="130" height="66" as="geometry" />
        </mxCell>
        <mxCell id="uHIWX93eIG6VSl-sE2Iv-13" value="&lt;font style=&quot;font-size: 16px;&quot;&gt;&lt;b&gt;Administration&lt;/b&gt;&lt;br&gt;&lt;/font&gt;&lt;div&gt;&lt;font style=&quot;font-size: 16px;&quot;&gt;[.NET Libraries]&lt;/font&gt;&lt;/div&gt;" style="rounded=0;whiteSpace=wrap;html=1;strokeColor=light-dark(#005493, #ededed);fillColor=light-dark(#74a7fe, #ededed);" vertex="1" parent="1">
          <mxGeometry x="884" y="489" width="130" height="66" as="geometry" />
        </mxCell>
        <mxCell id="uHIWX93eIG6VSl-sE2Iv-14" value="&lt;font style=&quot;font-size: 16px;&quot;&gt;&lt;b&gt;Payments&lt;/b&gt;&lt;br&gt;&lt;/font&gt;&lt;div&gt;&lt;font style=&quot;font-size: 16px;&quot;&gt;[.NET Libraries]&lt;/font&gt;&lt;/div&gt;" style="rounded=0;whiteSpace=wrap;html=1;strokeColor=light-dark(#005493, #ededed);fillColor=light-dark(#74a7fe, #ededed);" vertex="1" parent="1">
          <mxGeometry x="1058" y="489" width="130" height="66" as="geometry" />
        </mxCell>
        <mxCell id="uHIWX93eIG6VSl-sE2Iv-15" value="" style="endArrow=classic;html=1;rounded=0;exitX=0;exitY=0.75;exitDx=0;exitDy=0;entryX=1;entryY=0;entryDx=0;entryDy=0;" edge="1" parent="1" source="uHIWX93eIG6VSl-sE2Iv-9" target="uHIWX93eIG6VSl-sE2Iv-10">
          <mxGeometry width="50" height="50" relative="1" as="geometry">
            <mxPoint x="837" y="554" as="sourcePoint" />
            <mxPoint x="887" y="504" as="targetPoint" />
          </mxGeometry>
        </mxCell>
        <mxCell id="uHIWX93eIG6VSl-sE2Iv-16" value="" style="endArrow=classic;html=1;rounded=0;exitX=0.25;exitY=1;exitDx=0;exitDy=0;entryX=0.75;entryY=0;entryDx=0;entryDy=0;" edge="1" parent="1" source="uHIWX93eIG6VSl-sE2Iv-9" target="uHIWX93eIG6VSl-sE2Iv-11">
          <mxGeometry width="50" height="50" relative="1" as="geometry">
            <mxPoint x="837" y="554" as="sourcePoint" />
            <mxPoint x="887" y="504" as="targetPoint" />
          </mxGeometry>
        </mxCell>
        <mxCell id="uHIWX93eIG6VSl-sE2Iv-17" value="" style="endArrow=classic;html=1;rounded=0;exitX=0.5;exitY=1;exitDx=0;exitDy=0;entryX=0.5;entryY=0;entryDx=0;entryDy=0;" edge="1" parent="1" source="uHIWX93eIG6VSl-sE2Iv-9" target="uHIWX93eIG6VSl-sE2Iv-12">
          <mxGeometry width="50" height="50" relative="1" as="geometry">
            <mxPoint x="837" y="554" as="sourcePoint" />
            <mxPoint x="887" y="504" as="targetPoint" />
          </mxGeometry>
        </mxCell>
        <mxCell id="uHIWX93eIG6VSl-sE2Iv-18" value="" style="endArrow=classic;html=1;rounded=0;exitX=0.75;exitY=1;exitDx=0;exitDy=0;entryX=0.25;entryY=0;entryDx=0;entryDy=0;" edge="1" parent="1" source="uHIWX93eIG6VSl-sE2Iv-9" target="uHIWX93eIG6VSl-sE2Iv-13">
          <mxGeometry width="50" height="50" relative="1" as="geometry">
            <mxPoint x="837" y="554" as="sourcePoint" />
            <mxPoint x="887" y="504" as="targetPoint" />
          </mxGeometry>
        </mxCell>
        <mxCell id="uHIWX93eIG6VSl-sE2Iv-19" value="" style="endArrow=classic;html=1;rounded=0;exitX=1;exitY=0.75;exitDx=0;exitDy=0;entryX=0;entryY=0;entryDx=0;entryDy=0;" edge="1" parent="1" source="uHIWX93eIG6VSl-sE2Iv-9" target="uHIWX93eIG6VSl-sE2Iv-14">
          <mxGeometry width="50" height="50" relative="1" as="geometry">
            <mxPoint x="837" y="554" as="sourcePoint" />
            <mxPoint x="887" y="504" as="targetPoint" />
          </mxGeometry>
        </mxCell>
        <mxCell id="uHIWX93eIG6VSl-sE2Iv-20" value="" style="endArrow=classic;html=1;rounded=0;exitX=1;exitY=0.5;exitDx=0;exitDy=0;entryX=0;entryY=0.5;entryDx=0;entryDy=0;" edge="1" parent="1" source="uHIWX93eIG6VSl-sE2Iv-10" target="uHIWX93eIG6VSl-sE2Iv-11">
          <mxGeometry width="50" height="50" relative="1" as="geometry">
            <mxPoint x="837" y="554" as="sourcePoint" />
            <mxPoint x="887" y="504" as="targetPoint" />
          </mxGeometry>
        </mxCell>
        <mxCell id="uHIWX93eIG6VSl-sE2Iv-21" value="&lt;font style=&quot;font-size: 14px;&quot;&gt;Uses&lt;/font&gt;" style="text;html=1;align=center;verticalAlign=middle;whiteSpace=wrap;rounded=0;" vertex="1" parent="1">
          <mxGeometry x="453" y="491" width="60" height="30" as="geometry" />
        </mxCell>
        <mxCell id="uHIWX93eIG6VSl-sE2Iv-22" value="&lt;font style=&quot;font-size: 14px;&quot;&gt;Uses&lt;/font&gt;" style="text;html=1;align=center;verticalAlign=middle;whiteSpace=wrap;rounded=0;" vertex="1" parent="1">
          <mxGeometry x="586" y="421" width="60" height="30" as="geometry" />
        </mxCell>
        <mxCell id="uHIWX93eIG6VSl-sE2Iv-23" value="&lt;font style=&quot;font-size: 14px;&quot;&gt;Uses&lt;/font&gt;" style="text;html=1;align=center;verticalAlign=middle;whiteSpace=wrap;rounded=0;" vertex="1" parent="1">
          <mxGeometry x="682.5" y="438" width="60" height="30" as="geometry" />
        </mxCell>
        <mxCell id="uHIWX93eIG6VSl-sE2Iv-24" value="&lt;font style=&quot;font-size: 14px;&quot;&gt;Uses&lt;/font&gt;" style="text;html=1;align=center;verticalAlign=middle;whiteSpace=wrap;rounded=0;" vertex="1" parent="1">
          <mxGeometry x="772" y="451" width="60" height="30" as="geometry" />
        </mxCell>
        <mxCell id="uHIWX93eIG6VSl-sE2Iv-25" value="&lt;font style=&quot;font-size: 14px;&quot;&gt;Uses&lt;/font&gt;" style="text;html=1;align=center;verticalAlign=middle;whiteSpace=wrap;rounded=0;" vertex="1" parent="1">
          <mxGeometry x="856" y="421" width="60" height="30" as="geometry" />
        </mxCell>
        <mxCell id="uHIWX93eIG6VSl-sE2Iv-26" value="&lt;font style=&quot;font-size: 14px;&quot;&gt;Uses&lt;/font&gt;" style="text;html=1;align=center;verticalAlign=middle;whiteSpace=wrap;rounded=0;" vertex="1" parent="1">
          <mxGeometry x="919" y="400" width="60" height="30" as="geometry" />
        </mxCell>
        <mxCell id="uHIWX93eIG6VSl-sE2Iv-27" value="" style="rounded=0;whiteSpace=wrap;html=1;dashed=1;dashPattern=8 8;" vertex="1" parent="1">
          <mxGeometry x="-225" y="676" width="1112" height="131" as="geometry" />
        </mxCell>
        <mxCell id="uHIWX93eIG6VSl-sE2Iv-29" value="&lt;b&gt;&lt;font style=&quot;font-size: 16px;&quot;&gt;Registrations data&lt;/font&gt;&lt;/b&gt;&lt;div&gt;&lt;font style=&quot;font-size: 14px;&quot;&gt;[&lt;/font&gt;&lt;font&gt;schema]&lt;/font&gt;&lt;/div&gt;" style="shape=cylinder3;whiteSpace=wrap;html=1;boundedLbl=1;backgroundOutline=1;size=15;strokeColor=light-dark(#74a7fe, #EDEDED);fillColor=light-dark(#74a7fe, #ededed);" vertex="1" parent="1">
          <mxGeometry x="-203" y="720" width="164" height="70.5" as="geometry" />
        </mxCell>
        <mxCell id="uHIWX93eIG6VSl-sE2Iv-30" value="&lt;font style=&quot;font-size: 16px;&quot;&gt;&lt;b&gt;User Access data&lt;/b&gt;&lt;br&gt;&lt;/font&gt;&lt;div&gt;&lt;font style=&quot;font-size: 16px;&quot;&gt;&lt;font&gt;[&lt;/font&gt;&lt;font&gt;schema]&lt;/font&gt;&lt;/font&gt;&lt;/div&gt;" style="shape=cylinder3;whiteSpace=wrap;html=1;boundedLbl=1;backgroundOutline=1;size=15;strokeColor=light-dark(#74a7fe, #EDEDED);fillColor=light-dark(#74a7fe, #ededed);" vertex="1" parent="1">
          <mxGeometry x="17" y="720" width="164" height="70.5" as="geometry" />
        </mxCell>
        <mxCell id="uHIWX93eIG6VSl-sE2Iv-31" value="&lt;font style=&quot;font-size: 16px;&quot;&gt;&lt;b&gt;Meetings data&lt;/b&gt;&lt;br&gt;&lt;/font&gt;&lt;div&gt;&lt;font style=&quot;font-size: 16px;&quot;&gt;&lt;font&gt;[&lt;/font&gt;&lt;font&gt;schema]&lt;/font&gt;&lt;/font&gt;&lt;/div&gt;" style="shape=cylinder3;whiteSpace=wrap;html=1;boundedLbl=1;backgroundOutline=1;size=15;strokeColor=light-dark(#74a7fe, #EDEDED);fillColor=light-dark(#74a7fe, #ededed);" vertex="1" parent="1">
          <mxGeometry x="237" y="720" width="164" height="70.5" as="geometry" />
        </mxCell>
        <mxCell id="uHIWX93eIG6VSl-sE2Iv-32" value="&lt;font style=&quot;font-size: 16px;&quot;&gt;&lt;b&gt;Administration data&lt;/b&gt;&lt;br&gt;&lt;/font&gt;&lt;div&gt;&lt;font style=&quot;font-size: 16px;&quot;&gt;&lt;font&gt;[&lt;/font&gt;&lt;font&gt;schema]&lt;/font&gt;&lt;/font&gt;&lt;/div&gt;" style="shape=cylinder3;whiteSpace=wrap;html=1;boundedLbl=1;backgroundOutline=1;size=15;strokeColor=light-dark(#74a7fe, #EDEDED);fillColor=light-dark(#74a7fe, #ededed);" vertex="1" parent="1">
          <mxGeometry x="457" y="717" width="191" height="70.5" as="geometry" />
        </mxCell>
        <mxCell id="uHIWX93eIG6VSl-sE2Iv-33" value="&lt;font style=&quot;font-size: 16px;&quot;&gt;&lt;b&gt;Payments data&lt;/b&gt;&lt;br&gt;&lt;/font&gt;&lt;div&gt;&lt;font style=&quot;font-size: 16px;&quot;&gt;&lt;font&gt;[&lt;/font&gt;&lt;font&gt;schema]&lt;/font&gt;&lt;/font&gt;&lt;/div&gt;" style="shape=cylinder3;whiteSpace=wrap;html=1;boundedLbl=1;backgroundOutline=1;size=15;strokeColor=light-dark(#74a7fe, #EDEDED);fillColor=light-dark(#74a7fe, #ededed);" vertex="1" parent="1">
          <mxGeometry x="698" y="717" width="161" height="70.5" as="geometry" />
        </mxCell>
        <mxCell id="uHIWX93eIG6VSl-sE2Iv-34" value="&lt;font style=&quot;font-size: 16px;&quot;&gt;&lt;b&gt;Events Bus&lt;/b&gt;&lt;br&gt;&lt;/font&gt;&lt;div&gt;&lt;font style=&quot;font-size: 16px;&quot;&gt;[In memory]&lt;/font&gt;&lt;/div&gt;" style="rounded=0;whiteSpace=wrap;html=1;strokeColor=light-dark(#005493, #ededed);fillColor=light-dark(#74a7fe, #ededed);" vertex="1" parent="1">
          <mxGeometry x="920" y="719.25" width="130" height="66" as="geometry" />
        </mxCell>
        <mxCell id="uHIWX93eIG6VSl-sE2Iv-35" value="" style="endArrow=classic;html=1;rounded=0;exitX=0;exitY=0.5;exitDx=0;exitDy=0;entryX=0.5;entryY=0;entryDx=0;entryDy=0;entryPerimeter=0;edgeStyle=orthogonalEdgeStyle;curved=1;" edge="1" parent="1" source="uHIWX93eIG6VSl-sE2Iv-10" target="uHIWX93eIG6VSl-sE2Iv-29">
          <mxGeometry width="50" height="50" relative="1" as="geometry">
            <mxPoint x="124" y="554" as="sourcePoint" />
            <mxPoint x="174" y="504" as="targetPoint" />
            <Array as="points">
              <mxPoint x="-158" y="522" />
              <mxPoint x="-158" y="686" />
              <mxPoint x="-121" y="686" />
            </Array>
          </mxGeometry>
        </mxCell>
        <mxCell id="uHIWX93eIG6VSl-sE2Iv-36" value="" style="endArrow=classic;html=1;rounded=0;exitX=0;exitY=1;exitDx=0;exitDy=0;entryX=0.145;entryY=0;entryDx=0;entryDy=4.35;entryPerimeter=0;edgeStyle=orthogonalEdgeStyle;curved=1;" edge="1" parent="1" source="uHIWX93eIG6VSl-sE2Iv-11" target="uHIWX93eIG6VSl-sE2Iv-30">
          <mxGeometry width="50" height="50" relative="1" as="geometry">
            <mxPoint x="124" y="554" as="sourcePoint" />
            <mxPoint x="174" y="504" as="targetPoint" />
            <Array as="points">
              <mxPoint x="535" y="560" />
              <mxPoint x="-21" y="560" />
              <mxPoint x="-21" y="700" />
              <mxPoint x="41" y="700" />
            </Array>
          </mxGeometry>
        </mxCell>
        <mxCell id="uHIWX93eIG6VSl-sE2Iv-37" value="" style="endArrow=classic;html=1;rounded=0;exitX=0;exitY=1;exitDx=0;exitDy=0;entryX=0.145;entryY=0;entryDx=0;entryDy=4.35;entryPerimeter=0;edgeStyle=orthogonalEdgeStyle;curved=1;" edge="1" parent="1" source="uHIWX93eIG6VSl-sE2Iv-12" target="uHIWX93eIG6VSl-sE2Iv-31">
          <mxGeometry width="50" height="50" relative="1" as="geometry">
            <mxPoint x="124" y="554" as="sourcePoint" />
            <mxPoint x="174" y="504" as="targetPoint" />
            <Array as="points">
              <mxPoint x="710" y="572" />
              <mxPoint x="118" y="572" />
              <mxPoint x="118" y="700" />
              <mxPoint x="261" y="700" />
            </Array>
          </mxGeometry>
        </mxCell>
        <mxCell id="uHIWX93eIG6VSl-sE2Iv-38" value="" style="endArrow=classic;html=1;rounded=0;exitX=0;exitY=1;exitDx=0;exitDy=0;entryX=0.145;entryY=0;entryDx=0;entryDy=4.35;entryPerimeter=0;edgeStyle=orthogonalEdgeStyle;curved=1;" edge="1" parent="1" source="uHIWX93eIG6VSl-sE2Iv-13" target="uHIWX93eIG6VSl-sE2Iv-32">
          <mxGeometry width="50" height="50" relative="1" as="geometry">
            <mxPoint x="333" y="554" as="sourcePoint" />
            <mxPoint x="383" y="504" as="targetPoint" />
            <Array as="points">
              <mxPoint x="884" y="588" />
              <mxPoint x="228" y="588" />
              <mxPoint x="228" y="721" />
            </Array>
          </mxGeometry>
        </mxCell>
        <mxCell id="uHIWX93eIG6VSl-sE2Iv-39" value="" style="endArrow=classic;html=1;rounded=0;exitX=0.5;exitY=1;exitDx=0;exitDy=0;entryX=0.145;entryY=0;entryDx=0;entryDy=4.35;entryPerimeter=0;edgeStyle=orthogonalEdgeStyle;curved=1;" edge="1" parent="1" source="uHIWX93eIG6VSl-sE2Iv-14" target="uHIWX93eIG6VSl-sE2Iv-33">
          <mxGeometry width="50" height="50" relative="1" as="geometry">
            <mxPoint x="624" y="554" as="sourcePoint" />
            <mxPoint x="674" y="504" as="targetPoint" />
            <Array as="points">
              <mxPoint x="1120" y="555" />
              <mxPoint x="1120" y="668" />
              <mxPoint x="721" y="668" />
            </Array>
          </mxGeometry>
        </mxCell>
        <mxCell id="uHIWX93eIG6VSl-sE2Iv-40" value="" style="endArrow=classic;html=1;rounded=0;exitX=0.75;exitY=1;exitDx=0;exitDy=0;entryX=0.25;entryY=0;entryDx=0;entryDy=0;edgeStyle=orthogonalEdgeStyle;curved=1;" edge="1" parent="1" source="uHIWX93eIG6VSl-sE2Iv-10" target="uHIWX93eIG6VSl-sE2Iv-34">
          <mxGeometry width="50" height="50" relative="1" as="geometry">
            <mxPoint x="604" y="554" as="sourcePoint" />
            <mxPoint x="654" y="504" as="targetPoint" />
            <Array as="points">
              <mxPoint x="398" y="666" />
              <mxPoint x="953" y="666" />
            </Array>
          </mxGeometry>
        </mxCell>
        <mxCell id="uHIWX93eIG6VSl-sE2Iv-41" value="" style="endArrow=classic;html=1;rounded=0;exitX=0.5;exitY=1;exitDx=0;exitDy=0;entryX=0.25;entryY=0;entryDx=0;entryDy=0;edgeStyle=orthogonalEdgeStyle;curved=1;" edge="1" parent="1" source="uHIWX93eIG6VSl-sE2Iv-11" target="uHIWX93eIG6VSl-sE2Iv-34">
          <mxGeometry width="50" height="50" relative="1" as="geometry">
            <mxPoint x="604" y="554" as="sourcePoint" />
            <mxPoint x="654" y="504" as="targetPoint" />
            <Array as="points">
              <mxPoint x="600" y="658" />
              <mxPoint x="953" y="658" />
            </Array>
          </mxGeometry>
        </mxCell>
        <mxCell id="uHIWX93eIG6VSl-sE2Iv-42" value="" style="endArrow=classic;html=1;rounded=0;exitX=0.5;exitY=1;exitDx=0;exitDy=0;entryX=0.25;entryY=0;entryDx=0;entryDy=0;edgeStyle=orthogonalEdgeStyle;curved=1;" edge="1" parent="1" source="uHIWX93eIG6VSl-sE2Iv-12" target="uHIWX93eIG6VSl-sE2Iv-34">
          <mxGeometry width="50" height="50" relative="1" as="geometry">
            <mxPoint x="604" y="554" as="sourcePoint" />
            <mxPoint x="654" y="504" as="targetPoint" />
          </mxGeometry>
        </mxCell>
        <mxCell id="uHIWX93eIG6VSl-sE2Iv-43" value="" style="endArrow=classic;html=1;rounded=0;exitX=0.5;exitY=1;exitDx=0;exitDy=0;entryX=0.5;entryY=0;entryDx=0;entryDy=0;" edge="1" parent="1" source="uHIWX93eIG6VSl-sE2Iv-13" target="uHIWX93eIG6VSl-sE2Iv-34">
          <mxGeometry width="50" height="50" relative="1" as="geometry">
            <mxPoint x="604" y="554" as="sourcePoint" />
            <mxPoint x="654" y="504" as="targetPoint" />
          </mxGeometry>
        </mxCell>
        <mxCell id="uHIWX93eIG6VSl-sE2Iv-44" value="" style="endArrow=classic;html=1;rounded=0;exitX=1;exitY=0.75;exitDx=0;exitDy=0;entryX=1;entryY=0.25;entryDx=0;entryDy=0;edgeStyle=orthogonalEdgeStyle;curved=1;" edge="1" parent="1" source="uHIWX93eIG6VSl-sE2Iv-14" target="uHIWX93eIG6VSl-sE2Iv-34">
          <mxGeometry width="50" height="50" relative="1" as="geometry">
            <mxPoint x="357" y="554" as="sourcePoint" />
            <mxPoint x="407" y="504" as="targetPoint" />
            <Array as="points">
              <mxPoint x="1256" y="538" />
              <mxPoint x="1256" y="736" />
            </Array>
          </mxGeometry>
        </mxCell>
        <mxCell id="uHIWX93eIG6VSl-sE2Iv-45" value="&lt;font style=&quot;font-size: 14px;&quot;&gt;&lt;b&gt;Store / retrieve&lt;/b&gt;&lt;/font&gt;" style="text;html=1;align=center;verticalAlign=middle;whiteSpace=wrap;rounded=0;" vertex="1" parent="1">
          <mxGeometry x="-133" y="604" width="111" height="30" as="geometry" />
        </mxCell>
        <mxCell id="uHIWX93eIG6VSl-sE2Iv-46" value="&lt;font style=&quot;font-size: 14px;&quot;&gt;&lt;b&gt;Store / retrieve&lt;/b&gt;&lt;/font&gt;" style="text;html=1;align=center;verticalAlign=middle;whiteSpace=wrap;rounded=0;" vertex="1" parent="1">
          <mxGeometry x="-2" y="604" width="111" height="30" as="geometry" />
        </mxCell>
        <mxCell id="uHIWX93eIG6VSl-sE2Iv-47" value="&lt;font style=&quot;font-size: 14px;&quot;&gt;&lt;b&gt;Store / retrieve&lt;/b&gt;&lt;/font&gt;" style="text;html=1;align=center;verticalAlign=middle;whiteSpace=wrap;rounded=0;" vertex="1" parent="1">
          <mxGeometry x="138" y="604" width="111" height="30" as="geometry" />
        </mxCell>
        <mxCell id="uHIWX93eIG6VSl-sE2Iv-48" value="&lt;font style=&quot;font-size: 14px;&quot;&gt;&lt;b&gt;Store / retrieve&lt;/b&gt;&lt;/font&gt;" style="text;html=1;align=center;verticalAlign=middle;whiteSpace=wrap;rounded=0;" vertex="1" parent="1">
          <mxGeometry x="290" y="604" width="111" height="30" as="geometry" />
        </mxCell>
        <mxCell id="uHIWX93eIG6VSl-sE2Iv-49" style="edgeStyle=orthogonalEdgeStyle;rounded=0;orthogonalLoop=1;jettySize=auto;html=1;exitX=0.5;exitY=1;exitDx=0;exitDy=0;" edge="1" parent="1" source="uHIWX93eIG6VSl-sE2Iv-45" target="uHIWX93eIG6VSl-sE2Iv-45">
          <mxGeometry relative="1" as="geometry" />
        </mxCell>
        <mxCell id="uHIWX93eIG6VSl-sE2Iv-50" value="&lt;font style=&quot;font-size: 14px;&quot;&gt;&lt;b&gt;Publishes event to / subscribes&lt;/b&gt;&lt;/font&gt;" style="text;html=1;align=center;verticalAlign=middle;whiteSpace=wrap;rounded=0;" vertex="1" parent="1">
          <mxGeometry x="457" y="604" width="137" height="30" as="geometry" />
        </mxCell>
        <mxCell id="uHIWX93eIG6VSl-sE2Iv-51" value="&lt;font style=&quot;font-size: 14px;&quot;&gt;&lt;b&gt;Publishes event to / subscribes&lt;/b&gt;&lt;/font&gt;" style="text;html=1;align=center;verticalAlign=middle;whiteSpace=wrap;rounded=0;" vertex="1" parent="1">
          <mxGeometry x="646" y="604" width="137" height="30" as="geometry" />
        </mxCell>
        <mxCell id="uHIWX93eIG6VSl-sE2Iv-52" value="&lt;font style=&quot;font-size: 14px;&quot;&gt;&lt;b&gt;Publishes event to / subscribes&lt;/b&gt;&lt;/font&gt;" style="text;html=1;align=center;verticalAlign=middle;whiteSpace=wrap;rounded=0;" vertex="1" parent="1">
          <mxGeometry x="809.99" y="604" width="137" height="30" as="geometry" />
        </mxCell>
        <mxCell id="uHIWX93eIG6VSl-sE2Iv-53" value="&lt;font style=&quot;font-size: 14px;&quot;&gt;&lt;b&gt;Publishes event to / subscribes&lt;/b&gt;&lt;/font&gt;" style="text;html=1;align=center;verticalAlign=middle;whiteSpace=wrap;rounded=0;" vertex="1" parent="1">
          <mxGeometry x="979" y="604" width="137" height="30" as="geometry" />
        </mxCell>
        <mxCell id="uHIWX93eIG6VSl-sE2Iv-54" value="&lt;font style=&quot;font-size: 14px;&quot;&gt;&lt;b&gt;Store / retrieve&lt;/b&gt;&lt;/font&gt;" style="text;html=1;align=center;verticalAlign=middle;whiteSpace=wrap;rounded=0;" vertex="1" parent="1">
          <mxGeometry x="1130" y="604" width="111" height="30" as="geometry" />
        </mxCell>
        <mxCell id="uHIWX93eIG6VSl-sE2Iv-55" value="&lt;font style=&quot;font-size: 14px;&quot;&gt;&lt;b&gt;Publishes event to / subscribes&lt;/b&gt;&lt;/font&gt;" style="text;html=1;align=center;verticalAlign=middle;whiteSpace=wrap;rounded=0;" vertex="1" parent="1">
          <mxGeometry x="1273" y="604" width="137" height="30" as="geometry" />
        </mxCell>
        <mxCell id="uHIWX93eIG6VSl-sE2Iv-56" value="&lt;font style=&quot;font-size: 16px;&quot;&gt;&lt;b&gt;Database&lt;/b&gt;&lt;/font&gt;" style="text;html=1;align=center;verticalAlign=middle;whiteSpace=wrap;rounded=0;" vertex="1" parent="1">
          <mxGeometry x="301" y="679" width="60" height="30" as="geometry" />
        </mxCell>
        <mxCell id="uHIWX93eIG6VSl-sE2Iv-57" value="" style="endArrow=classic;html=1;rounded=0;exitX=0.5;exitY=1;exitDx=0;exitDy=0;entryX=0.5;entryY=0;entryDx=0;entryDy=0;" edge="1" parent="1" source="uHIWX93eIG6VSl-sE2Iv-5" target="uHIWX93eIG6VSl-sE2Iv-9">
          <mxGeometry width="50" height="50" relative="1" as="geometry">
            <mxPoint x="773.17" y="218" as="sourcePoint" />
            <mxPoint x="773.17" y="307" as="targetPoint" />
          </mxGeometry>
        </mxCell>
        <mxCell id="uHIWX93eIG6VSl-sE2Iv-58" value="&lt;font style=&quot;font-size: 14px;&quot;&gt;Uses&lt;/font&gt;&lt;div&gt;&lt;font style=&quot;font-size: 14px;&quot;&gt;[HTTP]&lt;/font&gt;&lt;/div&gt;" style="text;html=1;align=center;verticalAlign=middle;whiteSpace=wrap;rounded=0;" vertex="1" parent="1">
          <mxGeometry x="779.99" y="229" width="60" height="30" as="geometry" />
        </mxCell>
      </root>
    </mxGraphModel>
  </diagram>
</mxfile>
